<svg xmlns="http://www.w3.org/2000/svg" xmlns:xlink="http://www.w3.org/1999/xlink" width="24" height="24" viewBox="0 0 24 24">
  <defs>
    <clipPath id="clip-path">
      <rect id="bg" width="24" height="24" fill="none"/>
    </clipPath>
  </defs>
  <g id="Groupe_de_masques_2" data-name="Groupe de masques 2" clip-path="url(#clip-path)">
    <g id="stethoscope" transform="translate(0 0.575)">
      <g id="Groupe_17" data-name="Groupe 17">
        <g id="Groupe_16" data-name="Groupe 16">
          <path id="Tracé_6" data-name="Tracé 6" d="M23.971,13.379A2.8,2.8,0,0,0,21.6,11.008V10.28a3.531,3.531,0,0,0-3.4-3.64,3.544,3.544,0,0,0-3.4,3.531h.023l-.023,0v7.883a4.4,4.4,0,0,1-4.2,4.566,4.4,4.4,0,0,1-4.2-4.566v-.683c.58,0,1.2-.42,1.2-1.6V14.77A5.672,5.672,0,0,0,12,9.41V8.576h-.8L11.183,3.37A2,2,0,0,0,9.537,1.412a1.194,1.194,0,1,0-.027.816,1.2,1.2,0,0,1,.872,1.145l.018,5.2H9.6v.846a3.181,3.181,0,0,1-2.3,2.984,3.637,3.637,0,0,1-2.2,0A3.179,3.179,0,0,1,2.8,9.421V8.576H1.6v-5.2a1.2,1.2,0,0,1,.888-1.154,1.206,1.206,0,1,0-.025-.812A2,2,0,0,0,.8,3.376v5.2H0v.832A5.672,5.672,0,0,0,4.4,14.77v1.006c0,1.18.62,1.6,1.2,1.6v.683a5.2,5.2,0,0,0,5,5.366,5.2,5.2,0,0,0,5-5.366V10.195a2.737,2.737,0,0,1,2.6-2.753,2.731,2.731,0,0,1,2.6,2.84v.726a2.8,2.8,0,1,0,3.171,2.371ZM8.4,2.176a.4.4,0,1,1,.4-.4A.4.4,0,0,1,8.4,2.176Zm-4.8-.8a.4.4,0,1,1-.4.4A.4.4,0,0,1,3.6,1.376ZM.8,9.408V9.376H2v.046a3.974,3.974,0,0,0,2.855,3.745,4.451,4.451,0,0,0,2.687,0A3.975,3.975,0,0,0,10.4,9.421V9.376h.8v.032a4.9,4.9,0,0,1-4.08,4.657,5.706,5.706,0,0,1-1.688.083,5.225,5.225,0,0,1-.552-.084A4.9,4.9,0,0,1,.8,9.408Zm4.8,7.168c-.36,0-.4-.56-.4-.8v-.849c.032,0,.065.006.1.009l.12.011c.189.017.38.028.572.028h.02c.192,0,.382-.012.57-.028l.124-.011c.032,0,.064,0,.1-.009v.849c0,.24-.04.8-.4.8Zm15.6-.8a2,2,0,1,1,2-2A2,2,0,0,1,21.2,15.776Z" transform="translate(0 -0.575)" fill="#454f63"/>
        </g>
      </g>
      <g id="Groupe_19" data-name="Groupe 19" transform="translate(20 12)">
        <g id="Groupe_18" data-name="Groupe 18">
          <path id="Tracé_7" data-name="Tracé 7" d="M21.2,12.576a1.2,1.2,0,1,0,1.2,1.2A1.2,1.2,0,0,0,21.2,12.576Zm0,1.6a.4.4,0,1,1,.4-.4A.4.4,0,0,1,21.2,14.176Z" transform="translate(-20 -12.576)" fill="#454f63"/>
        </g>
      </g>
    </g>
  </g>
</svg>
